REM DIRINDEX 1\2\4,1\2\5,1\2\6,1\3\7,1\3\8,1\3\9,1\3\10
REM DIRNAME cjc057,folder01,folder02,folder03,folder04,folder05,folder06,folder07,folder08,folder09
TITLE ""
FILE "b_135.mp3" MP3
  TRACK 01 AUDIO
    TITLE "0:"
    INDEX 01 00:00:00
  TRACK 02 AUDIO
    TITLE "7:cjc057_08393"
    INDEX 01 00:00:15
  TRACK 03 AUDIO
    TITLE "0:"
    INDEX 01 00:01:32
  TRACK 04 AUDIO
    TITLE "8:cjc057_08394"
    INDEX 01 00:01:69
  TRACK 05 AUDIO
    TITLE "0:"
    INDEX 01 00:03:47
  TRACK 06 AUDIO
    TITLE "7:cjc057_08395"
    INDEX 01 00:04:54
  TRACK 07 AUDIO
    TITLE "0:"
    INDEX 01 00:06:14
  TRACK 08 AUDIO
    TITLE "8:cjc057_08396"
    INDEX 01 00:06:45
  TRACK 09 AUDIO
    TITLE "0:"
    INDEX 01 00:08:73
  TRACK 10 AUDIO
    TITLE "7:cjc057_08397"
    INDEX 01 00:10:10
  TRACK 11 AUDIO
    TITLE "0:"
    INDEX 01 00:11:17
  TRACK 12 AUDIO
    TITLE "8:cjc057_08398"
    INDEX 01 00:11:54
  TRACK 13 AUDIO
    TITLE "0:"
    INDEX 01 00:12:71
  TRACK 14 AUDIO
    TITLE "7:cjc057_08399"
    INDEX 01 00:14:09
  TRACK 15 AUDIO
    TITLE "0:"
    INDEX 01 00:15:30
  TRACK 16 AUDIO
    TITLE "8:cjc057_08400"
    INDEX 01 00:15:64
  TRACK 17 AUDIO
    TITLE "0:"
    INDEX 01 00:17:20
  TRACK 18 AUDIO
    TITLE "7:cjc057_08401"
    INDEX 01 00:18:31
  TRACK 19 AUDIO
    TITLE "0:"
    INDEX 01 00:19:44
  TRACK 20 AUDIO
    TITLE "8:cjc057_08402"
    INDEX 01 00:20:06
  TRACK 21 AUDIO
    TITLE "0:"
    INDEX 01 00:22:44
  TRACK 22 AUDIO
    TITLE "7:cjc057_08403"
    INDEX 01 00:23:55
  TRACK 23 AUDIO
    TITLE "0:"
    INDEX 01 00:24:71
  TRACK 24 AUDIO
    TITLE "8:cjc057_08404"
    INDEX 01 00:25:31
  TRACK 25 AUDIO
    TITLE "0:"
    INDEX 01 00:26:56
  TRACK 26 AUDIO
    TITLE "7:cjc057_08405"
    INDEX 01 00:27:65
  TRACK 27 AUDIO
    TITLE "0:"
    INDEX 01 00:29:23
  TRACK 28 AUDIO
    TITLE "8:cjc057_08406"
    INDEX 01 00:29:60
  TRACK 29 AUDIO
    TITLE "0:"
    INDEX 01 00:31:14
  TRACK 30 AUDIO
    TITLE "7:cjc057_08407"
    INDEX 01 00:32:25
  TRACK 31 AUDIO
    TITLE "0:"
    INDEX 01 00:33:32
  TRACK 32 AUDIO
    TITLE "8:cjc057_08408"
    INDEX 01 00:33:68
  TRACK 33 AUDIO
    TITLE "0:"
    INDEX 01 00:35:68
  TRACK 34 AUDIO
    TITLE "7:cjc057_08409"
    INDEX 01 00:37:07
  TRACK 35 AUDIO
    TITLE "0:"
    INDEX 01 00:38:24
  TRACK 36 AUDIO
    TITLE "8:cjc057_08410"
    INDEX 01 00:38:59
  TRACK 37 AUDIO
    TITLE "0:"
    INDEX 01 00:39:68
  TRACK 38 AUDIO
    TITLE "7:cjc057_08411"
    INDEX 01 00:41:04
  TRACK 39 AUDIO
    TITLE "0:"
    INDEX 01 00:42:21
  TRACK 40 AUDIO
    TITLE "8:cjc057_08412"
    INDEX 01 00:42:57
  TRACK 41 AUDIO
    TITLE "0:"
    INDEX 01 00:44:71
  TRACK 42 AUDIO
    TITLE "7:cjc057_08413"
    INDEX 01 00:46:04
  TRACK 43 AUDIO
    TITLE "0:"
    INDEX 01 00:47:23
  TRACK 44 AUDIO
    TITLE "8:cjc057_08414"
    INDEX 01 00:47:60
  TRACK 45 AUDIO
    TITLE "0:"
    INDEX 01 00:49:06
  TRACK 46 AUDIO
    TITLE "7:cjc057_08415"
    INDEX 01 00:50:15
  TRACK 47 AUDIO
    TITLE "0:"
    INDEX 01 00:51:24
  TRACK 48 AUDIO
    TITLE "8:cjc057_08416"
    INDEX 01 00:51:60
  TRACK 49 AUDIO
    TITLE "0:"
    INDEX 01 00:54:05
  TRACK 50 AUDIO
    TITLE "7:cjc057_08417"
    INDEX 01 00:55:14
  TRACK 51 AUDIO
    TITLE "0:"
    INDEX 01 00:56:20
  TRACK 52 AUDIO
    TITLE "8:cjc057_08418"
    INDEX 01 00:56:53
  TRACK 53 AUDIO
    TITLE "0:"
    INDEX 01 00:57:56
  TRACK 54 AUDIO
    TITLE "7:cjc057_08419"
    INDEX 01 00:58:64
  TRACK 55 AUDIO
    TITLE "0:"
    INDEX 01 01:00:02
  TRACK 56 AUDIO
    TITLE "8:cjc057_08420"
    INDEX 01 01:00:37
  TRACK 57 AUDIO
    TITLE "0:"
    INDEX 01 01:02:54
  TRACK 58 AUDIO
    TITLE "7:cjc057_08421"
    INDEX 01 01:03:63
  TRACK 59 AUDIO
    TITLE "0:"
    INDEX 01 01:05:11
  TRACK 60 AUDIO
    TITLE "8:cjc057_08422"
    INDEX 01 01:05:46
  TRACK 61 AUDIO
    TITLE "0:"
    INDEX 01 01:07:47
  TRACK 62 AUDIO
    TITLE "7:cjc057_08423"
    INDEX 01 01:08:58
  TRACK 63 AUDIO
    TITLE "0:"
    INDEX 01 01:10:00
  TRACK 64 AUDIO
    TITLE "8:cjc057_08424"
    INDEX 01 01:10:35
  TRACK 65 AUDIO
    TITLE "0:"
    INDEX 01 01:13:02
  TRACK 66 AUDIO
    TITLE "7:cjc057_08425"
    INDEX 01 01:14:10
  TRACK 67 AUDIO
    TITLE "0:"
    INDEX 01 01:15:05
  TRACK 68 AUDIO
    TITLE "8:cjc057_08426"
    INDEX 01 01:15:42
  TRACK 69 AUDIO
    TITLE "0:"
    INDEX 01 01:16:48
  TRACK 70 AUDIO
    TITLE "7:cjc057_08427"
    INDEX 01 01:17:59
  TRACK 71 AUDIO
    TITLE "0:"
    INDEX 01 01:19:17
  TRACK 72 AUDIO
    TITLE "8:cjc057_08428"
    INDEX 01 01:19:52
  TRACK 73 AUDIO
    TITLE "0:"
    INDEX 01 01:20:71
  TRACK 74 AUDIO
    TITLE "7:cjc057_08429"
    INDEX 01 01:22:05
  TRACK 75 AUDIO
    TITLE "0:"
    INDEX 01 01:23:36
  TRACK 76 AUDIO
    TITLE "8:cjc057_08430"
    INDEX 01 01:23:69
  TRACK 77 AUDIO
    TITLE "0:"
    INDEX 01 01:27:08
  TRACK 78 AUDIO
    TITLE "7:cjc057_08431"
    INDEX 01 01:28:20
  TRACK 79 AUDIO
    TITLE "0:"
    INDEX 01 01:29:54
  TRACK 80 AUDIO
    TITLE "8:cjc057_08432"
    INDEX 01 01:30:13
  TRACK 81 AUDIO
    TITLE "0:"
    INDEX 01 01:31:14
  TRACK 82 AUDIO
    TITLE "7:cjc057_08433"
    INDEX 01 01:32:25
  TRACK 83 AUDIO
    TITLE "0:"
    INDEX 01 01:33:44
  TRACK 84 AUDIO
    TITLE "8:cjc057_08434"
    INDEX 01 01:34:05
  TRACK 85 AUDIO
    TITLE "0:"
    INDEX 01 01:35:08
  TRACK 86 AUDIO
    TITLE "7:cjc057_08435"
    INDEX 01 01:36:21
  TRACK 87 AUDIO
    TITLE "0:"
    INDEX 01 01:37:22
  TRACK 88 AUDIO
    TITLE "8:cjc057_08436"
    INDEX 01 01:37:58
  TRACK 89 AUDIO
    TITLE "0:"
    INDEX 01 01:38:65
  TRACK 90 AUDIO
    TITLE "7:cjc057_08437"
    INDEX 01 01:40:01
  TRACK 91 AUDIO
    TITLE "0:"
    INDEX 01 01:41:03
  TRACK 92 AUDIO
    TITLE "8:cjc057_08438"
    INDEX 01 01:41:38
  TRACK 93 AUDIO
    TITLE "0:"
    INDEX 01 01:42:63
  TRACK 94 AUDIO
    TITLE "7:cjc057_08439"
    INDEX 01 01:43:72
  TRACK 95 AUDIO
    TITLE "0:"
    INDEX 01 01:45:20
  TRACK 96 AUDIO
    TITLE "8:cjc057_08440"
    INDEX 01 01:45:53
  TRACK 97 AUDIO
    TITLE "0:"
    INDEX 01 01:46:68
  TRACK 98 AUDIO
    TITLE "7:cjc057_08441"
    INDEX 01 01:48:03
  TRACK 99 AUDIO
    TITLE "0:"
    INDEX 01 01:49:24
  TRACK 100 AUDIO
    TITLE "8:cjc057_08442"
    INDEX 01 01:49:55
  TRACK 101 AUDIO
    TITLE "0:"
    INDEX 01 01:52:00
  TRACK 102 AUDIO
    TITLE "7:cjc057_08443"
    INDEX 01 01:53:08
  TRACK 103 AUDIO
    TITLE "0:"
    INDEX 01 01:54:23
  TRACK 104 AUDIO
    TITLE "8:cjc057_08444"
    INDEX 01 01:54:58
  TRACK 105 AUDIO
    TITLE "0:"
    INDEX 01 01:55:63
  TRACK 106 AUDIO
    TITLE "7:cjc057_08445"
    INDEX 01 01:56:73
  TRACK 107 AUDIO
    TITLE "0:"
    INDEX 01 01:58:17
  TRACK 108 AUDIO
    TITLE "8:cjc057_08446"
    INDEX 01 01:58:52
  TRACK 109 AUDIO
    TITLE "0:"
    INDEX 01 01:59:63
  TRACK 110 AUDIO
    TITLE "7:cjc057_08447"
    INDEX 01 02:00:72
  TRACK 111 AUDIO
    TITLE "0:"
    INDEX 01 02:01:74
  TRACK 112 AUDIO
    TITLE "8:cjc057_08448"
    INDEX 01 02:02:32
  TRACK 113 AUDIO
    TITLE "0:"
    INDEX 01 02:04:35
